<?xml version="1.0" encoding="UTF-8" standalone="no"?>
<svg width="467px" height="88px" viewBox="0 0 467 88" version="1.1" xmlns="http://www.w3.org/2000/svg" xmlns:xlink="http://www.w3.org/1999/xlink">
    <!-- Generator: Sketch 42 (36781) - http://www.bohemiancoding.com/sketch -->
    <title>logo-and-typography-brown</title>
    <desc>Created with Sketch.</desc>
    <defs>
        <polygon id="path-1" points="0.586 16.94 230.037 16.94 230.037 0.831124344 0.586 0.831124344 0.586 16.94"></polygon>
    </defs>
    <g id="Page-1" stroke="none" stroke-width="1" fill="none" fill-rule="evenodd">
        <g id="logo-and-typography-brown">
            <g id="Logo">
                <path d="M29.286,0.535 L29.921,0.535 C34.489,5.233 39.234,9.764 43.769,14.488 C39.073,19.201 34.366,23.896 29.662,28.6 C29.21,28.952 29.537,29.481 29.832,29.809 C29.45,29.809 29.138,29.667 28.901,29.378 C24.289,24.676 19.56,20.087 14.965,15.371 C14.967,15.238 14.979,14.97 14.981,14.834 C19.783,10.102 24.548,5.331 29.286,0.535" id="Fill-1" fill="#FF0000"></path>
                <path d="M58.251,0.535 L58.889,0.535 C63.217,4.957 67.64,9.291 72,13.689 C72.222,13.917 72.431,14.243 72.809,14.193 C77.274,9.586 81.903,5.133 86.381,0.535 L87.017,0.535 C91.264,4.866 95.589,9.119 99.868,13.422 C100.372,13.89 100.8,14.452 101.382,14.845 C101.352,15.006 101.293,15.329 101.265,15.494 C96.795,19.989 92.264,24.423 87.841,28.963 L87.78,28.904 C83.026,24.161 78.286,19.407 73.534,14.664 C73.296,14.332 72.809,14.36 72.57,14.658 C67.882,19.321 63.246,24.041 58.522,28.667 C53.871,23.889 49.091,19.234 44.406,14.486 C48.94,9.764 53.684,5.23 58.251,0.535" id="Fill-2" fill="#FF0000"></path>
                <path d="M43.769,14.488 C43.927,14.488 44.245,14.488 44.406,14.486 C49.091,19.234 53.871,23.889 58.522,28.667 C63.246,24.041 67.882,19.321 72.57,14.658 C72.809,14.36 73.296,14.332 73.534,14.664 C78.286,19.407 83.026,24.161 87.78,28.904 C87.593,29.612 86.963,30.041 86.488,30.547 C82.683,34.344 78.886,38.148 75.084,41.947 C74.544,42.471 74.063,43.07 73.417,43.471 C73.236,43.468 72.874,43.468 72.693,43.468 C71.167,42.295 69.941,40.772 68.535,39.463 C65.228,36.224 62.05,32.845 58.664,29.693 L58.641,29.542 C58.594,29.579 58.5,29.654 58.452,29.693 C54.45,33.514 50.609,37.511 46.668,41.398 C45.924,42.084 45.303,42.913 44.451,43.468 L43.724,43.468 C42.334,42.424 41.237,41.037 39.964,39.858 C36.572,36.522 33.288,33.074 29.832,29.809 C29.537,29.481 29.21,28.952 29.662,28.6 C34.366,23.896 39.073,19.201 43.769,14.488" id="Fill-16" fill="#FF7800"></path>
                <path d="M101.382,14.845 L101.438,14.675 C106.193,19.499 110.992,24.281 115.801,29.049 L115.801,29.667 C111.153,34.235 106.591,38.897 101.948,43.471 C101.898,43.145 101.761,42.872 101.533,42.655 C96.962,38.095 92.4,33.53 87.841,28.963 C92.264,24.423 96.795,19.989 101.265,15.494 C101.293,15.329 101.352,15.006 101.382,14.845" id="Fill-17" fill="#FF7800"></path>
                <path d="M14.848,15.246 L14.965,15.371 C19.56,20.087 24.289,24.676 28.901,29.378 C24.253,33.979 19.663,38.639 15.009,43.234 C15,43.44 14.984,43.85 14.976,44.053 C10.179,39.421 5.551,34.608 0.78,29.946 C0.78,29.793 0.777,29.486 0.777,29.33 C5.486,24.654 10.196,19.978 14.848,15.246" id="Fill-18" fill="#FF7800"></path>
                <path d="M87.78,28.904 L87.841,28.963 C92.4,33.53 96.962,38.095 101.533,42.655 C101.761,42.872 101.898,43.145 101.948,43.471 C97.202,48.247 92.448,53.016 87.663,57.75 C82.914,52.988 78.126,48.267 73.417,43.471 C74.063,43.07 74.544,42.471 75.084,41.947 C78.886,38.148 82.683,34.344 86.488,30.547 C86.963,30.041 87.593,29.612 87.78,28.904" id="Fill-19" fill="#DDDC4E"></path>
                <path d="M15.009,43.234 C19.663,38.639 24.253,33.979 28.901,29.378 C29.138,29.667 29.45,29.809 29.832,29.809 C33.288,33.074 36.572,36.522 39.964,39.858 C41.237,41.037 42.334,42.424 43.724,43.468 C39.401,47.88 34.995,52.211 30.642,56.589 C30.186,57.101 29.486,57.489 29.38,58.226 L29.319,58.168 C24.682,53.558 20.072,48.918 15.441,44.306 C15.324,44.289 15.087,44.256 14.97,44.239 L14.976,44.053 C14.984,43.85 15,43.44 15.009,43.234" id="Fill-20" fill="#DDDC4E"></path>
                <path d="M46.668,41.398 C50.609,37.511 54.45,33.514 58.452,29.693 L58.664,29.693 C62.05,32.845 65.228,36.224 68.535,39.463 C69.941,40.772 71.167,42.295 72.693,43.468 C68.022,48.233 63.25,52.904 58.561,57.65 C53.896,52.888 49.107,48.239 44.451,43.468 C45.303,42.913 45.924,42.084 46.668,41.398" id="Fill-21" fill="#DDDC4E"></path>
                <path d="M43.724,43.468 L44.451,43.468 C49.107,48.239 53.896,52.888 58.561,57.65 C63.25,52.904 68.022,48.233 72.693,43.468 C72.874,43.468 73.236,43.468 73.417,43.471 C78.126,48.267 82.914,52.988 87.663,57.75 C87.668,57.867 87.682,58.099 87.691,58.215 C84.507,61.616 81.112,64.816 77.856,68.147 C76.289,69.629 74.874,71.275 73.222,72.667 C73.102,72.67 72.865,72.673 72.746,72.673 C68.049,67.886 63.253,63.195 58.543,58.421 C53.904,63.243 49.063,67.877 44.393,72.673 C44.273,72.673 44.033,72.67 43.914,72.67 C38.973,67.96 34.224,63.039 29.38,58.226 C29.486,57.489 30.186,57.101 30.642,56.589 C34.995,52.211 39.401,47.88 43.724,43.468" id="Fill-22" fill="#674F3C"></path>
                <path d="M29.013,58.174 L29.319,58.168 L29.38,58.226 C34.224,63.039 38.973,67.96 43.914,72.67 C43.924,72.782 43.947,73.005 43.958,73.116 C39.148,77.848 34.385,82.63 29.64,87.426 L29.01,87.426 C24.27,82.633 19.501,77.862 14.706,73.121 L14.706,72.489 C19.501,67.746 24.281,62.981 29.013,58.174" id="Fill-23" fill="#45362B"></path>
                <path d="M87.691,58.215 C87.799,58.204 88.016,58.185 88.123,58.174 C92.854,62.983 97.636,67.746 102.432,72.492 L102.432,73.124 C97.633,77.859 92.869,82.633 88.127,87.426 L87.496,87.426 C82.752,82.63 77.987,77.848 73.18,73.119 C73.191,73.005 73.21,72.779 73.222,72.667 C74.874,71.275 76.289,69.629 77.856,68.147 C81.112,64.816 84.507,61.616 87.691,58.215" id="Fill-24" fill="#45362B"></path>
            </g>
            <g id="Typography" transform="translate(126.000000, 9.000000)">
                <g id="Pixel-Games" transform="translate(54.000000, 53.000000)">
                    <mask id="mask-2" fill="white">
                        <use xlink:href="#path-1"></use>
                    </mask>
                    <g id="Clip-4"></g>
                    <path d="M5.087,3.087 L5.087,3.087 C5.096,5.435 5.101,7.783 5.081,10.134 C7.407,10.137 9.733,10.131 12.059,10.137 C12.044,7.772 12.059,5.41 12.05,3.046 C9.73,3.079 7.404,2.995 5.087,3.087 L5.087,3.087 Z M0.589,0.889 C5.151,0.892 9.716,0.882 14.284,0.895 C14.295,1.67 14.228,2.452 14.323,3.232 C15.066,3.171 15.815,3.181 16.565,3.196 C16.534,5.469 16.548,7.739 16.557,10.014 C15.83,10 15.1,10.025 14.378,9.961 C14.158,10.747 14.326,11.582 14.292,12.392 C11.181,12.412 8.059,12.298 4.959,12.448 C5.009,13.961 4.965,15.475 4.987,16.991 C3.519,16.999 2.051,16.988 0.586,16.997 C0.6,11.627 0.6,6.26 0.589,0.889 L0.589,0.889 Z" id="Fill-5" fill="#FF0000" mask="url(#mask-2)"></path>
                    <path d="M25.282,0.898 C29.845,0.882 34.407,0.889 38.969,0.895 C38.924,1.598 39.088,2.3 39.01,3.01 C37.473,2.995 35.933,3.017 34.396,2.995 C34.387,6.956 34.37,10.92 34.404,14.88 C35.925,14.841 37.445,14.886 38.966,14.851 C38.96,15.562 38.963,16.278 38.972,16.997 C34.407,16.988 29.842,17.002 25.28,16.988 C25.294,16.292 25.308,15.596 25.249,14.908 C26.812,14.81 28.379,14.886 29.945,14.872 C29.942,10.914 29.942,6.956 29.945,3.001 C28.379,2.981 26.809,3.059 25.249,2.965 C25.305,2.274 25.294,1.584 25.282,0.898" id="Fill-6" fill="#FF0000" mask="url(#mask-2)"></path>
                    <path d="M47.734,0.898 C49.218,0.879 50.703,0.895 52.19,0.889 C52.192,1.659 52.167,2.43 52.212,3.207 C52.97,3.184 53.733,3.184 54.496,3.19 C54.499,3.965 54.468,4.742 54.521,5.518 C55.349,5.499 56.175,5.511 57.005,5.502 C57.005,4.736 57.003,3.971 56.989,3.21 C57.755,3.171 58.521,3.193 59.29,3.19 C59.281,2.425 59.281,1.664 59.278,0.904 C60.763,0.879 62.244,0.887 63.729,0.895 C63.707,2.389 63.721,3.884 63.721,5.38 C62.946,5.374 62.172,5.36 61.4,5.396 C61.448,6.165 61.431,6.939 61.459,7.714 C60.671,7.685 59.888,7.678 59.105,7.711 C59.147,8.544 59.064,9.385 59.161,10.22 C59.921,10.17 60.688,10.184 61.454,10.17 C61.448,10.95 61.397,11.732 61.459,12.517 C62.208,12.487 62.96,12.496 63.715,12.49 C63.729,13.988 63.704,15.49 63.729,16.991 C62.244,16.991 60.76,17.005 59.275,16.979 C59.281,16.217 59.281,15.453 59.29,14.696 C58.515,14.693 57.746,14.735 56.98,14.671 C57.005,13.905 57.005,13.141 57.008,12.382 C56.164,12.385 55.32,12.353 54.479,12.403 C54.496,13.167 54.496,13.935 54.499,14.704 C53.728,14.704 52.956,14.701 52.19,14.696 C52.185,15.448 52.176,16.203 52.215,16.963 C50.717,17.018 49.215,17.005 47.72,16.969 C47.795,15.468 47.7,13.967 47.772,12.468 C48.536,12.507 49.302,12.496 50.07,12.498 C50.059,11.722 50.059,10.947 50.04,10.176 C50.812,10.186 51.583,10.186 52.357,10.179 C52.34,9.351 52.34,8.524 52.357,7.702 C51.583,7.688 50.809,7.688 50.037,7.705 C50.062,6.926 50.059,6.148 50.073,5.374 C49.299,5.371 48.524,5.363 47.756,5.402 C47.731,3.898 47.77,2.396 47.734,0.898" id="Fill-7" fill="#FF0000" mask="url(#mask-2)"></path>
                    <path d="M72.491,0.892 C77.062,0.882 81.632,0.901 86.205,0.882 C86.191,1.578 86.18,2.274 86.244,2.973 C83.164,3.026 80.075,3.026 76.995,2.973 C76.867,4.589 76.975,6.218 76.939,7.839 C80.028,7.923 83.125,7.855 86.216,7.872 C86.188,8.58 86.188,9.293 86.222,10.006 C83.13,10.019 80.039,9.977 76.95,10.028 C76.917,11.627 76.964,13.225 76.925,14.827 C80.019,14.905 83.122,14.857 86.219,14.851 C86.188,15.556 86.186,16.264 86.225,16.977 C81.646,17.018 77.067,16.979 72.488,16.997 C72.513,11.627 72.511,6.26 72.491,0.892" id="Fill-8" fill="#FF0000" mask="url(#mask-2)"></path>
                    <path d="M94.915,0.901 C96.399,0.882 97.883,0.884 99.371,0.898 C99.348,5.556 99.371,10.212 99.362,14.869 C102.44,14.851 105.52,14.883 108.601,14.851 C108.584,15.562 108.584,16.278 108.604,16.994 C104.039,16.988 99.474,17.008 94.912,16.982 C94.928,11.624 94.922,6.263 94.915,0.901" id="Fill-9" fill="#FF0000" mask="url(#mask-2)"></path>
                    <path d="M122.034,0.889 L133.372,0.889 C133.355,1.598 133.355,2.307 133.377,3.02 C130.292,2.984 127.206,3.02 124.12,2.998 C124.094,3.795 124.162,4.599 124.072,5.399 C123.317,5.366 122.565,5.371 121.819,5.377 C121.835,7.75 121.833,10.123 121.819,12.496 C122.565,12.498 123.317,12.501 124.072,12.479 C124.159,13.269 124.097,14.069 124.117,14.872 C125.718,14.86 127.32,14.866 128.924,14.866 C128.913,13.251 128.941,11.636 128.907,10.019 C128.15,9.983 127.395,10.006 126.64,10.014 C126.637,9.296 126.637,8.583 126.64,7.87 C128.885,7.881 131.129,7.878 133.375,7.87 C133.352,10.911 133.352,13.952 133.375,16.997 C129.592,16.991 125.81,16.994 122.031,16.994 C122.037,16.224 122.037,15.459 122.056,14.696 C121.243,14.687 120.429,14.74 119.625,14.671 C119.685,13.902 119.664,13.137 119.683,12.37 C118.917,12.379 118.154,12.379 117.393,12.395 C117.405,10.092 117.379,7.792 117.405,5.491 C118.16,5.508 118.919,5.508 119.683,5.515 C119.666,4.736 119.666,3.959 119.649,3.187 C120.449,3.19 121.25,3.19 122.053,3.19 C122.037,2.419 122.037,1.653 122.034,0.889" id="Fill-10" fill="#FF0000" mask="url(#mask-2)"></path>
                    <path d="M148.938,3.049 L148.938,3.049 C148.896,3.843 149,4.644 148.879,5.438 C148.127,5.39 147.381,5.399 146.635,5.41 C146.652,6.986 146.635,8.565 146.646,10.145 C148.966,10.123 151.289,10.137 153.612,10.137 C153.609,8.565 153.586,6.995 153.625,5.427 C152.848,5.388 152.074,5.41 151.305,5.402 C151.319,4.614 151.319,3.831 151.314,3.052 C150.517,3.046 149.726,3.046 148.938,3.049 L148.938,3.049 Z M146.735,0.909 C148.994,0.867 151.255,0.898 153.517,0.892 C153.514,1.653 153.517,2.413 153.511,3.18 C154.28,3.196 155.051,3.187 155.826,3.187 C155.798,3.959 155.803,4.733 155.792,5.511 C156.555,5.505 157.322,5.521 158.09,5.474 C158.163,9.309 158.074,13.147 158.137,16.985 C156.648,17.005 155.161,16.985 153.675,16.997 C153.681,15.456 153.667,13.916 153.687,12.379 C151.314,12.379 148.941,12.387 146.571,12.376 C146.587,13.913 146.568,15.45 146.584,16.991 C145.097,16.991 143.613,16.999 142.131,16.988 C142.181,13.15 142.092,9.312 142.175,5.477 C142.927,5.515 143.685,5.508 144.446,5.514 C144.426,4.736 144.429,3.959 144.41,3.187 C145.187,3.187 145.966,3.187 146.75,3.196 C146.741,2.43 146.741,1.667 146.735,0.909 L146.735,0.909 Z" id="Fill-11" fill="#FF0000" mask="url(#mask-2)"></path>
                    <path d="M166.888,0.892 C168.368,0.892 169.849,0.873 171.331,0.906 C171.333,1.664 171.331,2.425 171.328,3.187 C172.094,3.199 172.863,3.16 173.634,3.219 C173.609,3.975 173.609,4.739 173.621,5.505 C174.461,5.488 175.311,5.56 176.155,5.458 C176.119,4.7 176.122,3.945 176.126,3.19 C176.887,3.184 177.65,3.184 178.419,3.201 C178.433,2.428 178.424,1.656 178.427,0.887 C179.912,0.909 181.402,0.848 182.886,0.921 C182.839,6.273 182.853,11.63 182.88,16.982 C181.394,17.011 179.91,16.982 178.424,16.999 C178.43,13.89 178.43,10.786 178.424,7.681 C177.586,7.697 176.753,7.694 175.921,7.691 C175.923,8.46 175.926,9.231 175.935,10.009 C175.233,10.003 174.531,10.003 173.834,10.009 C173.834,9.237 173.834,8.466 173.846,7.699 C173.001,7.691 172.161,7.691 171.323,7.697 C171.35,10.788 171.32,13.883 171.339,16.977 C169.852,17.014 168.368,16.985 166.886,16.991 C166.906,11.627 166.903,6.26 166.888,0.892" id="Fill-12" fill="#FF0000" mask="url(#mask-2)"></path>
                    <path d="M191.587,0.904 C196.174,0.876 200.761,0.889 205.349,0.898 C205.332,1.584 205.318,2.274 205.382,2.968 C202.271,3.056 199.158,2.978 196.046,3.007 C196.093,4.631 195.935,6.27 196.127,7.886 C199.188,7.855 202.249,7.897 205.312,7.864 C205.374,8.574 205.318,9.29 205.352,10.009 C202.335,10 199.319,10.012 196.305,10.003 C196.242,10.07 196.111,10.209 196.043,10.276 C196.036,11.805 196.046,13.334 196.043,14.863 C199.155,14.889 202.265,14.824 205.376,14.896 C205.321,15.587 205.332,16.286 205.352,16.988 C200.759,16.991 196.167,17.011 191.576,16.977 C191.598,11.618 191.573,6.263 191.587,0.904" id="Fill-13" fill="#FF0000" mask="url(#mask-2)"></path>
                    <path d="M216.344,0.898 C219.38,0.876 222.414,0.901 225.449,0.884 C225.449,1.656 225.43,2.43 225.469,3.204 C226.224,3.187 226.987,3.187 227.75,3.18 C227.727,3.92 227.747,4.664 227.716,5.41 C226.249,5.338 224.781,5.39 223.316,5.38 C223.31,4.589 223.307,3.801 223.316,3.017 C221.711,2.984 220.107,3.026 218.505,2.993 C218.503,4.622 218.478,6.254 218.517,7.886 C221.594,7.861 224.672,7.886 227.752,7.872 C227.733,8.643 227.736,9.418 227.713,10.198 C228.485,10.181 229.259,10.181 230.037,10.184 C230.008,11.69 230.023,13.203 230.028,14.716 C229.256,14.701 228.485,14.704 227.719,14.682 C227.733,15.442 227.727,16.208 227.761,16.977 C223.954,17.011 220.149,16.991 216.341,16.985 C216.35,16.22 216.35,15.45 216.359,14.687 C215.584,14.701 214.813,14.701 214.047,14.713 C214.066,13.961 214.052,13.217 214.075,12.473 C215.559,12.493 217.046,12.51 218.534,12.462 C218.544,13.264 218.505,14.066 218.498,14.874 C220.878,14.854 223.26,14.872 225.644,14.863 C225.638,13.334 225.65,11.805 225.641,10.276 C225.581,10.206 225.452,10.07 225.391,10 C222.375,10.014 219.361,9.997 216.347,10.009 C216.344,9.231 216.347,8.457 216.367,7.685 C215.589,7.691 214.816,7.691 214.044,7.702 C214.075,6.198 214.075,4.697 214.047,3.196 C214.816,3.184 215.587,3.187 216.364,3.196 C216.347,2.428 216.347,1.661 216.344,0.898" id="Fill-14" fill="#FF0000" mask="url(#mask-2)"></path>
                </g>
                <g id="Irreverent" fill="#FF7800">
                    <path d="M0,0.666 C1.883,0.651 3.763,0.66 5.646,0.66 L5.646,25.445 C3.763,25.448 1.886,25.448 0.005,25.448 C0.003,17.187 0.008,8.927 0,0.666" id="Fill-25"></path>
                    <path d="M21.529,7.876 L21.529,7.876 C21.504,9.249 21.529,10.628 21.521,12.007 C26.501,12.013 31.481,12.015 36.46,12.007 C37.151,12.023 37.836,11.419 37.828,10.712 C37.858,9.235 37.845,7.762 37.831,6.289 C32.907,6.31 27.985,6.283 23.064,6.303 C22.248,6.297 21.529,7.074 21.529,7.876 L21.529,7.876 Z M15.889,7.892 C15.817,4.167 19.061,0.726 22.805,0.671 C29.701,0.645 36.597,0.666 43.493,0.663 C43.485,4.091 43.51,7.522 43.479,10.954 C43.398,13.672 41.538,16.153 39.051,17.181 C40.416,19.941 41.803,22.69 43.178,25.448 C41.304,25.448 39.43,25.445 37.555,25.448 C36.16,22.86 34.792,20.257 33.405,17.663 C29.439,17.678 25.47,17.627 21.507,17.688 C21.54,20.273 21.513,22.86 21.521,25.445 C19.638,25.448 17.758,25.448 15.881,25.445 C15.886,19.594 15.87,13.742 15.889,7.892 L15.889,7.892 Z" id="Fill-26"></path>
                    <path d="M59.686,7.879 L59.686,7.879 C59.661,9.255 59.683,10.631 59.678,12.007 C64.663,12.013 69.646,12.015 74.631,12.007 C75.319,12.015 75.996,11.411 75.985,10.703 C76.018,9.232 75.993,7.762 75.993,6.294 C71.072,6.306 66.15,6.289 61.229,6.303 C60.41,6.291 59.683,7.074 59.686,7.879 L59.686,7.879 Z M54.297,5.976 C55.116,3.057 57.881,0.723 60.953,0.671 C67.852,0.645 74.751,0.666 81.65,0.663 C81.642,4.086 81.666,7.512 81.639,10.934 C81.569,13.672 79.684,16.142 77.202,17.201 C78.595,19.941 79.954,22.702 81.335,25.448 C79.461,25.448 77.586,25.445 75.712,25.448 C74.316,22.86 72.949,20.254 71.562,17.663 C67.593,17.682 63.624,17.619 59.658,17.694 C59.7,20.278 59.666,22.86 59.678,25.445 C57.795,25.448 55.915,25.451 54.035,25.445 C54.041,20.526 54.035,15.61 54.038,10.695 C54.074,9.121 53.901,7.517 54.297,5.976 L54.297,5.976 Z" id="Fill-27"></path>
                    <path d="M91.913,0.666 C100.291,0.654 108.671,0.66 117.052,0.663 L117.052,6.3 C110.551,6.297 104.054,6.294 97.559,6.3 C97.553,7.644 97.553,8.99 97.556,10.336 C104.054,10.347 110.554,10.339 117.052,10.341 C117.049,12.222 117.055,14.106 117.049,15.989 C110.549,16.001 104.048,15.975 97.55,16.004 C97.564,16.825 97.534,17.652 97.564,18.482 C97.57,19.264 98.35,19.894 99.121,19.807 C105.098,19.813 111.075,19.807 117.052,19.81 L117.052,25.448 C111.081,25.451 105.112,25.445 99.141,25.448 C96.353,25.484 93.721,23.671 92.565,21.17 C92.044,20.072 91.921,18.842 91.913,17.64 C91.913,11.981 91.919,6.322 91.913,0.666" id="Fill-28"></path>
                    <path d="M126.302,0.66 C128.399,0.645 130.499,0.682 132.599,0.64 C135.911,6.728 138.941,12.984 142.255,19.07 C145.466,12.951 148.614,6.796 151.8,0.66 C153.917,0.666 156.036,0.643 158.155,0.674 C153.877,8.927 149.613,17.189 145.341,25.448 C143.247,25.406 141.141,25.528 139.052,25.384 C134.855,17.117 130.543,8.904 126.302,0.66" id="Fill-29"></path>
                    <path d="M167.112,0.666 C175.491,0.654 183.871,0.663 192.251,0.66 L192.251,6.297 C185.753,6.3 179.253,6.294 172.755,6.3 C172.752,7.644 172.752,8.99 172.755,10.339 C179.253,10.344 185.75,10.339 192.251,10.341 C192.251,12.222 192.251,14.106 192.249,15.989 C185.748,16.006 179.245,15.962 172.742,16.012 C172.766,16.831 172.733,17.652 172.764,18.476 C172.766,19.262 173.549,19.894 174.324,19.807 C180.297,19.813 186.275,19.807 192.251,19.81 L192.251,25.445 C186.272,25.448 180.292,25.448 174.315,25.448 C171.596,25.473 169.04,23.743 167.845,21.343 C167.266,20.203 167.118,18.911 167.112,17.652 C167.112,11.99 167.118,6.328 167.112,0.666" id="Fill-30"></path>
                    <path d="M208.414,7.901 L208.414,7.901 C208.388,9.268 208.414,10.637 208.406,12.007 C213.388,12.015 218.374,12.015 223.359,12.007 C224.049,12.015 224.729,11.402 224.712,10.695 C224.743,9.226 224.723,7.759 224.72,6.294 C219.799,6.308 214.878,6.286 209.959,6.303 C209.129,6.291 208.4,7.086 208.414,7.901 L208.414,7.901 Z M202.785,7.623 C202.84,3.991 206.054,0.722 209.701,0.668 C216.591,0.648 223.484,0.663 230.377,0.663 C230.369,4.089 230.394,7.517 230.364,10.945 C230.299,13.694 228.392,16.126 225.93,17.223 C227.338,19.947 228.678,22.71 230.063,25.448 C228.188,25.451 226.317,25.442 224.445,25.451 C223.042,22.863 221.679,20.254 220.287,17.663 C216.321,17.678 212.355,17.627 208.391,17.688 C208.422,20.273 208.397,22.86 208.406,25.445 C206.523,25.448 204.643,25.451 202.763,25.445 C202.78,19.504 202.735,13.563 202.785,7.623 L202.785,7.623 Z" id="Fill-31"></path>
                    <path d="M240.638,0.666 C249.019,0.654 257.399,0.663 265.78,0.663 L265.78,6.297 C259.279,6.3 252.782,6.291 246.284,6.303 C246.281,7.644 246.281,8.99 246.287,10.339 C252.782,10.344 259.279,10.341 265.78,10.339 C265.78,12.222 265.78,14.106 265.777,15.989 C259.277,16.004 252.776,15.97 246.275,16.006 C246.292,16.822 246.264,17.639 246.292,18.457 C246.281,19.251 247.069,19.894 247.846,19.807 C253.823,19.813 259.8,19.807 265.78,19.81 L265.78,25.445 C259.8,25.451 253.82,25.445 247.843,25.448 C245.127,25.473 242.574,23.746 241.376,21.35 C240.794,20.212 240.646,18.914 240.643,17.655 C240.641,11.993 240.646,6.328 240.638,0.666" id="Fill-32"></path>
                    <path d="M276.035,7.609 C276.041,3.955 279.285,0.71 282.933,0.668 C289.654,0.648 296.377,0.666 303.098,0.66 C303.104,8.924 303.101,17.184 303.101,25.445 C301.205,25.448 299.313,25.448 297.422,25.445 C297.411,19.061 297.436,12.675 297.408,6.289 C292.682,6.31 287.953,6.286 283.226,6.3 C282.376,6.253 281.647,7.06 281.692,7.892 C281.68,13.742 281.692,19.594 281.686,25.445 C279.794,25.445 277.901,25.451 276.012,25.445 C276.029,19.499 275.988,13.553 276.035,7.609" id="Fill-33"></path>
                    <path d="M313.612,0.663 C322.46,0.657 331.309,0.66 340.158,0.663 L340.158,6.3 C336.738,6.294 333.317,6.303 329.9,6.294 C329.849,12.681 329.941,19.075 329.855,25.459 C327.984,25.409 326.112,25.501 324.246,25.412 C324.285,19.039 324.265,12.667 324.254,6.294 C320.706,6.3 317.161,6.297 313.615,6.297 C313.612,4.417 313.615,2.54 313.612,0.663" id="Fill-34"></path>
                </g>
            </g>
        </g>
    </g>
</svg>