<?xml version="1.0" standalone="no"?>
<!DOCTYPE svg PUBLIC "-//W3C//DTD SVG 20010904//EN"
 "http://www.w3.org/TR/2001/REC-SVG-20010904/DTD/svg10.dtd">
<svg version="1.0" xmlns="http://www.w3.org/2000/svg"
 width="116.000000pt" height="116.000000pt" viewBox="0 0 116.000000 116.000000"
 preserveAspectRatio="xMidYMid meet">
<metadata>
Created by potrace 1.11, written by Peter Selinger 2001-2013
</metadata>
<g transform="translate(0.000000,116.000000) scale(0.100000,-0.100000)"
fill="#000000" stroke="none">
<path d="M160 882 c-69 -71 -131 -136 -139 -145 -12 -16 1 -31 129 -157 l143
-139 -71 -72 c-40 -40 -72 -75 -72 -78 0 -10 134 -141 144 -141 14 0 286 278
286 292 0 8 5 6 11 -5 14 -24 277 -287 287 -287 11 0 142 134 141 145 0 6 -33
41 -72 79 l-72 68 143 142 143 141 -141 140 c-77 77 -145 142 -150 143 -6 2
-40 -26 -77 -63 l-66 -67 -66 66 c-37 36 -71 66 -77 66 -5 0 -40 -31 -77 -70
l-66 -69 -67 69 c-37 39 -72 70 -78 70 -6 0 -67 -58 -136 -128z"/>
</g>
</svg>
